<svg width="33" height="32" viewBox="0 0 33 32" fill="none" xmlns="http://www.w3.org/2000/svg">
<path d="M15.1152 15.4774V7.24993C15.1152 6.47629 14.1261 6.15344 13.6697 6.7781L6.22894 16.9613C5.84283 17.4898 6.22024 18.2329 6.87469 18.2329H12.2847C12.7264 18.2329 13.0844 18.591 13.0844 19.0327L13.0845 27.0478C13.0845 27.8311 14.0939 28.1474 14.5409 27.5042L22.0267 16.7336C22.3953 16.2033 22.0158 15.4774 21.37 15.4774H18.8665" stroke="black" stroke-width="2.39928" stroke-linecap="round" stroke-linejoin="round"/>
<path d="M24.5002 2.3999L25.9529 5.74722L29.3002 7.1999L25.9529 8.65258L24.5002 11.9999L23.0475 8.65258L19.7002 7.1999L23.0475 5.74722L24.5002 2.3999Z" stroke="#1573FF" stroke-width="2.39928" stroke-linejoin="round"/>
</svg>
