<svg width="33" height="32" viewBox="0 0 33 32" fill="none" xmlns="http://www.w3.org/2000/svg">
<path d="M12.4109 5.6001C8.23528 7.29122 5.2998 11.2976 5.2998 15.9708C5.2998 22.1726 10.4698 27.2001 16.8474 27.2001C21.7405 27.2001 25.9228 24.2406 27.6047 20.0619C27.6373 19.9808 27.669 19.8992 27.6998 19.8171" stroke="black" stroke-width="2.39928" stroke-linecap="round"/>
<path d="M17.879 4.59042C22.9801 5.49394 27.0064 9.5203 27.91 14.6214C27.9538 14.869 27.88 15.0896 27.7085 15.2707C27.5275 15.4619 27.2387 15.6006 26.9009 15.6006H18.0995C17.4369 15.6006 16.8998 15.0635 16.8998 14.4009V5.59948C16.8998 5.26174 17.0385 4.9729 17.2297 4.79187C17.4108 4.62037 17.6314 4.54657 17.879 4.59042Z" stroke="#FFCCED" stroke-width="2.39928" stroke-linecap="round" stroke-linejoin="round"/>
</svg>
